# xmcd
#
# Track frame offsets: 
#        150
#        18996
#        39777
#        58453
#        77886
#        93669
#        111875
#        128772
#        144659
#        162938
#        179292
#
# Disc length: 2797 seconds
#
# Revision: 0
# Processed by: cddbd v1.5.2PL0 Copyright (c) Steve Scherf et al.
# Submitted via: ExactAudioCopyFreeDBPlugin 1.0
#
DISCID=920aeb0b
DTITLE=The Kris Barras Band - The Divine And Dirty
DYEAR=2018
DGENRE=Blues
TTITLE0=Kick Me Down
TTITLE1=Hail Mary
TTITLE2=I Don't Owe Nobody Nothing
TTITLE3=Propane
TTITLE4=Wrong Place, Wrong Time
TTITLE5=Lovers Or Losers
TTITLE6=She's More Than Enough
TTITLE7=Stich Me Up
TTITLE8=Hold On For Tomorrow
TTITLE9=Blood On Your Hands
TTITLE10=Watching Over Me
EXTD=
EXTT0=
EXTT1=
EXTT2=
EXTT3=
EXTT4=
EXTT5=
EXTT6=
EXTT7=
EXTT8=
EXTT9=
EXTT10=
PLAYORDER=
